<svg id="Layer_1" data-name="Layer 1" xmlns="http://www.w3.org/2000/svg" width="30" height="30" viewBox="0 0 30 30">
  <title>icons</title>
  <g>
    <path d="M22.837,13.99a2.587,2.587,0,0,0-3.055,0,2.73,2.73,0,0,0-.931,1.515h4.9A2.787,2.787,0,0,0,22.837,13.99Z" fill="#cbcbcb"/>
    <path d="M10.551,13.406a1.54,1.54,0,0,0,.829-.668,2.129,2.129,0,0,0,.169-1.057,1.785,1.785,0,0,0-.093-.779,1.207,1.207,0,0,0-.414-.558,1.185,1.185,0,0,0-.787-.2l-1.607-.008-2.428,0v3.291L8.749,13.4Z" fill="#cbcbcb"/>
    <path d="M11.575,16.236a1.444,1.444,0,0,0-.444-.381,1.338,1.338,0,0,0-.648-.152L6.22,15.686V19.6l4.3.021a1.631,1.631,0,0,0,.724-.241,1.669,1.669,0,0,0,.533-.545,2.045,2.045,0,0,0,.291-1.028,2.368,2.368,0,0,0-.114-.888A2.134,2.134,0,0,0,11.575,16.236Z" fill="#cbcbcb"/>
    <path d="M26.529,0H3.471A3.471,3.471,0,0,0,0,3.471V26.529A3.471,3.471,0,0,0,3.471,30H26.529A3.471,3.471,0,0,0,30,26.529V3.471A3.471,3.471,0,0,0,26.529,0ZM18.236,8.28h6.141v1.878H18.236Zm-3,9.567a4.626,4.626,0,0,1-.545,2.36,3.779,3.779,0,0,1-1.041,1.1,4.89,4.89,0,0,1-2.055.862,13.733,13.733,0,0,1-2.2.127c-.589.012-1.076.013-1.408.011L2.757,22.3,2.779,7.429H8.743c.388,0,.953.006,1.639.026a6.9,6.9,0,0,1,1.358.1,4.032,4.032,0,0,1,1.624.787,3.762,3.762,0,0,1,1.053,1.37,3.685,3.685,0,0,1,.279,1.7,3.081,3.081,0,0,1-.482,1.738,2.808,2.808,0,0,1-1.434,1.041,2.679,2.679,0,0,1,1.307.558,2.722,2.722,0,0,1,.66.787,3.829,3.829,0,0,1,.291.736,4.641,4.641,0,0,1,.14.545A4.342,4.342,0,0,1,15.241,17.847Zm11.635-.059h-8.09a3.847,3.847,0,0,0,.353,1.127,2.773,2.773,0,0,0,.6.8,2.351,2.351,0,0,0,.808.479,2.912,2.912,0,0,0,.968.159,2.582,2.582,0,0,0,.771-.12,2.247,2.247,0,0,0,.7-.353,1.959,1.959,0,0,0,.509-.574,1.618,1.618,0,0,0,.208-.787h3.061a4.909,4.909,0,0,1-.621,1.764,4.516,4.516,0,0,1-1.15,1.291,5.072,5.072,0,0,1-1.579.8,6.41,6.41,0,0,1-1.894.274,6.882,6.882,0,0,1-2.349-.384,5.123,5.123,0,0,1-1.83-1.116,4.952,4.952,0,0,1-1.182-1.8,6.609,6.609,0,0,1-.417-2.422,6.638,6.638,0,0,1,.406-2.388,5.1,5.1,0,0,1,1.14-1.8A5,5,0,0,1,19.038,11.6a6.17,6.17,0,0,1,2.263-.4,6.49,6.49,0,0,1,2.311.389,4.755,4.755,0,0,1,2.874,2.921,6.992,6.992,0,0,1,.39,2.413Z" fill="#cbcbcb"/>
  </g>
</svg>
