<svg xmlns="http://www.w3.org/2000/svg" xmlns:xlink="http://www.w3.org/1999/xlink" width="30" height="30" viewBox="0 0 30 30">
  <defs>
    <clipPath id="clip-path">
      <ellipse cx="15" cy="15" rx="14.41" ry="14.416" fill="none"/>
    </clipPath>
    <clipPath id="clip-path-2">
      <path d="M15,30A15,15,0,1,1,30,15,15.017,15.017,0,0,1,15,30ZM15,.4A14.6,14.6,0,1,0,29.6,15,14.617,14.617,0,0,0,15,.4Z" fill="none"/>
    </clipPath>
    <clipPath id="clip-path-3">
      <path d="M15,29.611A14.611,14.611,0,1,1,29.605,15,14.624,14.624,0,0,1,15,29.611ZM15,.778A14.222,14.222,0,1,0,29.215,15,14.235,14.235,0,0,0,15,.778Z" fill="none"/>
    </clipPath>
  </defs>
  <title>icons</title>
  <g style="isolation: isolate">
    <g id="Layer_1" data-name="Layer 1">
      <g id="Cdr">
        <g clip-path="url(#clip-path)">
          <rect x="0.59" y="0.584" width="28.82" height="28.833" fill="#409200"/>
          <circle cx="15" cy="15" r="14.413" fill="#409200"/>
          <circle cx="15" cy="15" r="10.81" fill="#4eaa09"/>
          <circle cx="15" cy="15" r="7.207" fill="#56ba10"/>
          <circle cx="15" cy="15" r="3.603" fill="#5ac012"/>
        </g>
        <g clip-path="url(#clip-path-2)">
          <polygon points="20.742 29.6 29.6 23.412 29.6 29.6 20.742 29.6" fill="#4fa315"/>
          <polygon points="1.748 29.6 0.4 27.67 0.4 25.607 29.6 5.207 29.6 23.412 20.742 29.6 1.748 29.6" fill="#4fa315"/>
          <polygon points="0.4 7.402 10.422 0.4 28.252 0.4 29.6 2.33 29.6 5.207 0.4 25.607 0.4 7.402" fill="#398506"/>
          <polygon points="10.422 0.4 0.4 7.402 0.4 0.4 10.422 0.4" fill="#398506"/>
          <polygon points="20.17 30 30 23.132 30 30 20.17 30" fill="#4fa315"/>
          <polygon points="1.473 30 0 27.891 0 25.886 30 4.927 30 23.132 20.17 30 1.473 30" fill="#4fa315"/>
          <polygon points="0 7.681 10.994 0 28.527 0 30 2.109 30 4.927 0 25.886 0 7.681" fill="#398506"/>
          <polygon points="10.994 0 0 7.681 0 0 10.994 0" fill="#398506"/>
        </g>
        <g opacity="0.7" style="mix-blend-mode: lighten">
          <path d="M15,.584A14.417,14.417,0,0,0,1.258,10.651c.082.083.162.16.238.232,2.439,2.294,5.527,2.632,7.248,2.821a17.952,17.952,0,0,0,3.274.04,23.533,23.533,0,0,0,7.36-1.707,27.375,27.375,0,0,0,4.14-2.165,44.684,44.684,0,0,0,3.711-2.5A14.4,14.4,0,0,0,15,.584Z" fill="#b3f850"/>
        </g>
        <g clip-path="url(#clip-path-3)">
          <rect x="0.785" y="25.958" width="28.43" height="3.263" fill="#58b310"/>
          <rect x="0.785" y="22.306" width="28.43" height="3.653" fill="#5fb818"/>
          <rect x="0.785" y="18.653" width="28.43" height="3.653" fill="#6abe24"/>
          <rect x="0.785" y="15" width="28.43" height="3.653" fill="#77c633"/>
          <rect x="0.785" y="11.347" width="28.43" height="3.653" fill="#85d043"/>
          <rect x="0.785" y="7.694" width="28.43" height="3.653" fill="#94d954"/>
          <rect x="0.785" y="4.042" width="28.43" height="3.653" fill="#a5e467"/>
          <rect x="0.785" y="0.778" width="28.43" height="3.263" fill="#b6ef7b"/>
          <rect x="0.395" y="25.958" width="29.209" height="3.653" fill="#58b310"/>
          <rect x="0.395" y="22.306" width="29.209" height="3.653" fill="#5fb818"/>
          <rect x="0.395" y="18.653" width="29.209" height="3.653" fill="#6abe24"/>
          <rect x="0.395" y="15" width="29.209" height="3.653" fill="#77c633"/>
          <rect x="0.395" y="11.347" width="29.209" height="3.653" fill="#85d043"/>
          <rect x="0.395" y="7.694" width="29.209" height="3.653" fill="#94d954"/>
          <rect x="0.395" y="4.042" width="29.209" height="3.653" fill="#a5e467"/>
          <rect x="0.395" y="0.389" width="29.209" height="3.653" fill="#b6ef7b"/>
        </g>
        <g id="pen" opacity="0.9">
          <path d="M15,.389h-.065L9.647,9.278a2.833,2.833,0,0,0,.661-.25c.341-.18.4-.3.863-.6a3.49,3.49,0,0,1,.982-.5,2.662,2.662,0,0,1,1.28-.039,2.487,2.487,0,0,1,.315.091L18.057.71A14.658,14.658,0,0,0,15,.389Z" fill="#fffff5"/>
          <path d="M25.106,4.453,20.5,12.772a4.9,4.9,0,0,1,.96.264,3.838,3.838,0,0,1,1.061.575,2.98,2.98,0,0,1,.639.719l4.007-7.416A14.627,14.627,0,0,0,25.106,4.453Z" fill="#fffff5"/>
          <path d="M19.021.95l-4.507,7.5a2.4,2.4,0,0,1,.188.189,5.3,5.3,0,0,1,.556.912c.3.54.443.811.463.85.312.6.468.892.588,1.184.1.243.241.472.318.724a.671.671,0,0,0,.159.317.7.7,0,0,0,.446.179,3.96,3.96,0,0,0,1.051-.05,9.416,9.416,0,0,1,.943-.079c.107,0,.209,0,.306,0l4.855-8.87A14.571,14.571,0,0,0,19.021.95Z" fill="#fffff5"/>
          <path d="M10.563,19.662a3.381,3.381,0,0,1,1.421.509,3.129,3.129,0,0,1,1.131,1.039,2.734,2.734,0,0,1,.272.571l9.093-6.195a3.117,3.117,0,0,0-.318-.407,3.532,3.532,0,0,0-1.071-.774,4.567,4.567,0,0,0-1.945-.377c-.768-.026-.893.083-1.865.04-.832-.038-1.091-.134-1.289-.3-.248-.205-.258-.4-.5-1.091a23.248,23.248,0,0,0-1.25-2.639,1.512,1.512,0,0,0-.317-.436A1.726,1.726,0,0,0,12.9,9.187a2.313,2.313,0,0,0-.992.139,7,7,0,0,0-1.448.952A1.942,1.942,0,0,1,9.7,10.7a1.319,1.319,0,0,1-.246.026L9.9,19.662A3.161,3.161,0,0,1,10.563,19.662Z" fill="#fffff5"/>
          <path d="M12.5,21.968a2.938,2.938,0,0,0-1.159-1.043,2.875,2.875,0,0,0-1.384-.284l.168,3.366,2.55-1.738A3.065,3.065,0,0,0,12.5,21.968Z" fill="#446027"/>
        </g>
      </g>
    </g>
  </g>
</svg>
