<svg xmlns="http://www.w3.org/2000/svg" width="30" height="30" viewBox="0 0 30 30">
  <title>icons</title>
  <g style="isolation: isolate">
    <g id="Layer_1" data-name="Layer 1">
      <g id="css">
        <g>
          <polygon points="13.176 1.123 13.176 0 10.48 0 10.48 3.369 13.176 3.369 13.176 2.246 11.519 2.246 11.519 1.123 13.176 1.123"/>
          <polygon points="16.345 0.963 16.345 0 14.612 0 13.649 0 13.649 0.963 13.649 1.203 13.649 2.166 14.612 2.166 15.382 2.166 15.382 2.407 13.649 2.407 13.649 3.369 15.382 3.369 16.345 3.369 16.345 2.407 16.345 2.166 16.345 1.203 15.382 1.203 14.612 1.203 14.612 0.963 16.345 0.963"/>
          <polygon points="19.52 0.963 19.52 0 17.787 0 16.824 0 16.824 0.963 16.824 1.203 16.824 2.166 17.787 2.166 18.557 2.166 18.557 2.407 16.824 2.407 16.824 3.369 18.557 3.369 19.52 3.369 19.52 2.407 19.52 2.166 19.52 1.203 18.557 1.203 17.787 1.203 17.787 0.963 19.52 0.963"/>
        </g>
        <g>
          <polygon points="3.967 4.988 26.033 4.988 24.049 27.475 15 30 5.951 27.475 3.967 4.988" fill="#264de4"/>
          <polygon points="8.071 9.618 21.914 9.618 20.667 23.687 15.015 25.31 9.318 23.747 8.927 19.358 11.738 19.358 11.904 21.552 15.03 22.394 18.066 21.583 18.397 17.975 8.807 17.975 8.552 15.194 18.638 15.194 18.893 12.383 8.311 12.383 8.071 9.618" fill="#ebebeb"/>
          <g opacity="0.5" style="mix-blend-mode: overlay">
            <polygon points="15.03 6.912 15.03 28.117 15.06 28.125 22.366 26.086 24.057 6.912 15.03 6.912" fill="#fff"/>
          </g>
        </g>
      </g>
    </g>
  </g>
</svg>
