<svg id="Layer_1" data-name="Layer 1" xmlns="http://www.w3.org/2000/svg" xmlns:xlink="http://www.w3.org/1999/xlink" width="30" height="30" viewBox="0 0 30 30">
  <defs>
    <radialGradient id="radial-gradient" cx="11.922" cy="13.837" r="9.218" gradientTransform="translate(0 -10.362) scale(1 1.749)" gradientUnits="userSpaceOnUse">
      <stop offset="0" stop-color="#d27e2e"/>
      <stop offset="0.831" stop-color="#b9662a"/>
      <stop offset="1" stop-color="#b36029"/>
    </radialGradient>
    <radialGradient id="radial-gradient-2" cx="13.098" cy="10.349" r="6.828" gradientTransform="translate(2.612 -11.844) rotate(6.959) scale(1 2.006)" gradientUnits="userSpaceOnUse">
      <stop offset="0" stop-color="#d27e2e"/>
      <stop offset="0.363" stop-color="#ce7a2d"/>
      <stop offset="0.713" stop-color="#c36f2c"/>
      <stop offset="1" stop-color="#b36029"/>
    </radialGradient>
    <radialGradient id="radial-gradient-3" cx="13.806" cy="16.786" r="9.355" gradientTransform="matrix(-0.188, 0.982, -1.211, -0.232, 36.728, 7.127)" gradientUnits="userSpaceOnUse">
      <stop offset="0.073" stop-color="#ac8052"/>
      <stop offset="0.124" stop-color="#b48653"/>
      <stop offset="0.381" stop-color="#d8a159"/>
      <stop offset="0.59" stop-color="#efb25d"/>
      <stop offset="0.723" stop-color="#f7b85e"/>
      <stop offset="0.862" stop-color="#d39d58"/>
      <stop offset="1" stop-color="#ac8052"/>
    </radialGradient>
    <linearGradient id="linear-gradient" x1="10.952" y1="15.608" x2="19.445" y2="15.608" gradientUnits="userSpaceOnUse">
      <stop offset="0" stop-color="#b36029"/>
      <stop offset="0.287" stop-color="#c36f2c"/>
      <stop offset="0.637" stop-color="#ce7a2d"/>
      <stop offset="1" stop-color="#d27e2e"/>
    </linearGradient>
  </defs>
  <title>icons</title>
  <g>
    <rect width="30" height="30" fill="#e6e7e8"/>
    <g>
      <g>
        <path d="M18,13.864l1.441,3.708C7.364,16,11.376,27.165,11.376,27.165H4.1V4.578L8.474,2.945l.069-.024c3.576-.482,10.291,1.221,10.291,1.221l.914,4.4c-.68-.108-4.221-.652-6.475,0a2.889,2.889,0,0,0-1.5.875,2.622,2.622,0,0,0-.628,1.814C11.31,12.563,14.093,13.675,18,13.864Z" fill="url(#radial-gradient)"/>
        <path d="M18,13.864l1.441,3.708C7.364,16,11.376,27.165,11.376,27.165h-.523C3.115,14.129,5.78,6.57,8.474,2.945l.069-.024c3.576-.482,10.291,1.221,10.291,1.221l.914,4.4c-.68-.108-4.221-.652-6.475,0a2.889,2.889,0,0,0-1.5.875,2.622,2.622,0,0,0-.628,1.814C11.31,12.563,14.093,13.675,18,13.864Z" fill="url(#radial-gradient-2)"/>
        <path d="M18,13.864l1.441,3.708c-11.753-1.528-8.271,9-8.08,9.569C-2.585.657,19.218,8.356,19.737,8.541c-.7-.109-4.22-.646-6.464,0a2.889,2.889,0,0,0-1.5.875,2.622,2.622,0,0,0-.628,1.814C11.31,12.563,14.093,13.675,18,13.864Z" fill="url(#radial-gradient-3)"/>
        <path d="M19.445,17.572a45.046,45.046,0,0,0-4.668-.394c-1.978-.063-3.017.042-3.534-.673a1.932,1.932,0,0,1,.074-2.146c.5-.663,1.437-.687,3.286-.711.4-.007.854,0,1.371.02.6.032,1.287.091,2.03.2Z" fill="url(#linear-gradient)"/>
      </g>
      <g>
        <path d="M17.643,24.712a1,1,0,0,0-.611-.413.957.957,0,0,0,.555-.405,1.306,1.306,0,0,0,.194-.735,1.435,1.435,0,0,0-.439-1.1,1.685,1.685,0,0,0-1.192-.408,1.567,1.567,0,0,0-1.226.483,1.729,1.729,0,0,0-.416.979h.925a1.06,1.06,0,0,1,.134-.376.791.791,0,0,1,1.119-.086.719.719,0,0,1,.188.525.837.837,0,0,1-.216.619.858.858,0,0,1-.629.214l-.058,0a.518.518,0,0,0-.064,0v.656h.085a1.032,1.032,0,0,1,.708.228.786.786,0,0,1,.258.624.829.829,0,0,1-.226.593.752.752,0,0,1-.567.238.719.719,0,0,1-.619-.276,1.021,1.021,0,0,1-.121-.243h-.966a1.545,1.545,0,0,0,.41.888,1.736,1.736,0,0,0,1.3.449,1.7,1.7,0,0,0,1.245-.444,1.615,1.615,0,0,0,.455-1.212A1.354,1.354,0,0,0,17.643,24.712Z" fill="#d27e2e"/>
        <path d="M20.935,23.258a1,1,0,0,0-.2-.605.628.628,0,0,0-.5-.2.654.654,0,0,0-.6.271,2.069,2.069,0,0,0-.175,1.027v.395a2.12,2.12,0,0,1,.505-.292,1.379,1.379,0,0,1,.494-.1,1.362,1.362,0,0,1,1.063.466,1.75,1.75,0,0,1,.417,1.212,1.717,1.717,0,0,1-.46,1.247,1.616,1.616,0,0,1-1.219.476,1.587,1.587,0,0,1-1.284-.5,2.32,2.32,0,0,1-.424-1.523V23.546a2.041,2.041,0,0,1,.434-1.408,1.611,1.611,0,0,1,1.259-.481,1.6,1.6,0,0,1,1.159.4,1.5,1.5,0,0,1,.413,1.124v.077Zm-.69,3.081a.716.716,0,0,0,.555-.249.994.994,0,0,0,0-1.255.716.716,0,0,0-.555-.249.7.7,0,0,0-.544.249,1.013,1.013,0,0,0,0,1.258A.7.7,0,0,0,20.245,26.339Z" fill="#d27e2e"/>
        <path d="M22.566,25.077V23.734a4.374,4.374,0,0,1,.057-.834,1.543,1.543,0,0,1,.186-.479,1.519,1.519,0,0,1,.589-.567,1.747,1.747,0,0,1,.839-.2,1.783,1.783,0,0,1,.843.194,1.492,1.492,0,0,1,.592.57,1.436,1.436,0,0,1,.179.453,3.669,3.669,0,0,1,.053.709v1.671a3.556,3.556,0,0,1-.037.587,1.6,1.6,0,0,1-.121.394,1.51,1.51,0,0,1-.594.685,1.839,1.839,0,0,1-1.753.044,1.537,1.537,0,0,1-.59-.57,1.6,1.6,0,0,1-.186-.48A4.353,4.353,0,0,1,22.566,25.077Zm.915-1.262V25a2.206,2.206,0,0,0,.173,1.048.73.73,0,0,0,1.169-.009A2.18,2.18,0,0,0,25,25v-1.2a2.171,2.171,0,0,0-.177-1.044.632.632,0,0,0-.586-.292.623.623,0,0,0-.581.295A2.216,2.216,0,0,0,23.481,23.815Z" fill="#d27e2e"/>
      </g>
    </g>
  </g>
</svg>
