<svg id="Layer_1" data-name="Layer 1" xmlns="http://www.w3.org/2000/svg" width="30" height="30" viewBox="0 0 30 30">
  <title>icons</title>
  <path d="M30,15.4A15,15,0,1,0,10.119,29.585a1.437,1.437,0,0,0,.772-1.117c0-.825-.018-2.947-.018-2.947a10.389,10.389,0,0,1-1.58.111,3.4,3.4,0,0,1-3.434-2.318,4.059,4.059,0,0,0-1.685-2c-.388-.25-.477-.544-.028-.628,2.072-.388,2.6,2.337,3.986,2.772a3.889,3.889,0,0,0,2.89-.231A2.988,2.988,0,0,1,12.211,21.3c-3.52-.337-5.607-1.553-6.689-3.507l-.116-.219-.272-.621-.08-.222a10.52,10.52,0,0,1-.49-3.4,5.8,5.8,0,0,1,1.654-4.3A6.017,6.017,0,0,1,6.478,4.7S8,4.388,10.882,6.439c1.561-.665,5.724-.72,7.694-.147C19.783,5.5,22,4.37,22.887,4.685c.241.387.762,1.514.316,3.991a6.969,6.969,0,0,1,1.882,4.971,12.863,12.863,0,0,1-.385,3.086l-.13.441s-.075.207-.156.406l-.1.218c-1.044,2.281-3.187,3.133-6.648,3.487,1.122.7,1.443,1.584,1.443,3.968s-.032,2.7-.024,3.252a1.511,1.511,0,0,0,.743,1.1A15.006,15.006,0,0,0,30,15.4Z" fill="#cbcbcb"/>
</svg>
