<svg id="Layer_1" data-name="Layer 1" xmlns="http://www.w3.org/2000/svg" width="30" height="30" viewBox="0 0 30 30">
  <title>icons</title>
  <g>
    <path d="M26.64,14.415,15.616,4.826a.939.939,0,0,0-1.232,0L3.36,14.415a.938.938,0,0,0,.616,1.646h2.9v6.05A1.036,1.036,0,0,0,8,23.023h6.973V17.749a1.03,1.03,0,0,1,1.12-.907h2.161a1.03,1.03,0,0,1,1.12.907v5.274H22a1.036,1.036,0,0,0,1.126-.912v-6.05h2.9A.938.938,0,0,0,26.64,14.415Z" fill="#cbcbcb"/>
    <path d="M15,30A15,15,0,1,1,30,15,15.017,15.017,0,0,1,15,30ZM15,1.25A13.75,13.75,0,1,0,28.75,15,13.765,13.765,0,0,0,15,1.25Z" fill="#cbcbcb"/>
  </g>
</svg>
