<svg xmlns="http://www.w3.org/2000/svg" width="30" height="30" viewBox="0 0 30 30">
  <title>icons</title>
  <g style="isolation: isolate">
    <g id="Layer_1" data-name="Layer 1">
      <g id="html">
        <g>
          <polygon points="20.695 2.249 20.695 0 19.571 0 19.571 2.249 19.571 3.373 20.695 3.373 22.27 3.373 22.27 2.249 20.695 2.249"/>
          <polygon points="14.67 0 13.69 0 12.566 0 11.586 0 11.586 1.124 12.566 1.124 12.566 3.373 13.69 3.373 13.69 1.124 14.67 1.124 14.67 0"/>
          <polygon points="9.981 0 9.981 1.124 8.855 1.124 8.855 0 7.73 0 7.73 3.373 8.855 3.373 8.855 2.249 9.981 2.249 9.981 3.373 11.106 3.373 11.106 0 9.981 0"/>
          <polygon points="19.089 0 19.089 3.373 17.965 3.373 17.964 1.656 17.121 2.909 16.279 1.657 16.278 3.373 15.153 3.373 15.153 0 16.278 0 16.278 0 16.278 0 17.123 1.368 17.965 0 19.089 0"/>
        </g>
        <g>
          <polygon points="3.955 4.961 26.045 4.961 24.059 27.472 15 30 5.941 27.472 3.955 4.961" fill="#e44d26"/>
          <polygon points="21.952 9.55 8.048 9.55 8.831 17.947 18.416 17.947 18.085 21.498 14.955 22.356 11.93 21.513 11.765 19.316 8.966 19.316 9.327 23.665 14.985 25.23 20.658 23.65 21.425 15.148 11.374 15.148 11.118 12.289 21.711 12.289 21.952 9.55" fill="#ebebeb"/>
          <g opacity="0.5" style="mix-blend-mode: overlay">
            <polygon points="14.97 6.827 14.97 28.054 15 28.063 22.313 26.022 24.007 6.827 14.97 6.827" fill="#fff"/>
          </g>
        </g>
      </g>
    </g>
  </g>
</svg>
