<svg xmlns="http://www.w3.org/2000/svg" width="30" height="30" viewBox="0 0 30 30">
  <title>icons</title>
  <g style="isolation: isolate">
    <g id="Layer_1" data-name="Layer 1">
      <g id="ID">
        <rect x="1.145" y="1.571" width="27.711" height="26.859" fill="#351521"/>
        <g>
          <g opacity="0.5" style="mix-blend-mode: multiply">
            <polygon points="29.427 14.354 21.65 6.885 20.44 10.646 19.35 12.203 16.89 11.727 11.767 6.972 8.943 21.8 16.315 29.221 29.536 28.837 29.427 14.354" fill="#351521"/>
          </g>
          <g>
            <path d="M8.948,6.885h2.891V21.776H8.948Z" fill="#fe3184"/>
            <path d="M21.656,21a8.715,8.715,0,0,1-2.729.712A5.884,5.884,0,0,1,16,21.432a4.817,4.817,0,0,1-2.4-1.9,5.522,5.522,0,0,1-.786-2.94,6.024,6.024,0,0,1,.544-2.874,5.014,5.014,0,0,1,1.715-2.054,4.514,4.514,0,0,1,2.279-.756,4.793,4.793,0,0,1,1.635.173V6.885h2.7Q21.673,13.942,21.656,21Zm-4.262-7.674a2.618,2.618,0,0,0-1.311,1.361,4.006,4.006,0,0,0-.343,2.162,2.728,2.728,0,0,0,.343,1.4,2.3,2.3,0,0,0,1.779.957A2.43,2.43,0,0,0,18.989,19q.039-2.817.079-5.634a2.293,2.293,0,0,0-1.674-.043Z" fill="#fe3184"/>
          </g>
        </g>
        <path d="M30,29.574H0V.426H30ZM2.289,27.285H27.711V2.715H2.289Z" fill="#fe3184"/>
      </g>
    </g>
  </g>
</svg>
