<svg id="Layer_1" data-name="Layer 1" xmlns="http://www.w3.org/2000/svg" width="30" height="30" viewBox="0 0 30 30">
  <title>icons</title>
  <g>
    <path d="M19.783,6.093H10.217a4.129,4.129,0,0,0-4.124,4.124v9.566a4.129,4.129,0,0,0,4.124,4.124h9.566a4.129,4.129,0,0,0,4.124-4.124V10.217A4.129,4.129,0,0,0,19.783,6.093ZM15,20.522A5.522,5.522,0,1,1,20.522,15,5.528,5.528,0,0,1,15,20.522Zm5.748-9.995a1.314,1.314,0,1,1,1.314-1.314A1.314,1.314,0,0,1,20.748,10.527Z" fill="#cbcbcb"/>
    <path d="M25.436,0H4.564A4.564,4.564,0,0,0,0,4.564V25.436A4.564,4.564,0,0,0,4.564,30H25.436A4.564,4.564,0,0,0,30,25.436V4.564A4.564,4.564,0,0,0,25.436,0Zm.42,19.783a6.079,6.079,0,0,1-6.073,6.073H10.217a6.079,6.079,0,0,1-6.073-6.073V10.217a6.079,6.079,0,0,1,6.073-6.073h9.566a6.079,6.079,0,0,1,6.073,6.073Z" fill="#cbcbcb"/>
    <circle cx="15" cy="15" r="3.573" fill="#cbcbcb"/>
  </g>
</svg>
