<svg id="Layer_1" data-name="Layer 1" xmlns="http://www.w3.org/2000/svg" width="30" height="30" viewBox="0 0 30 30">
  <title>icons</title>
  <g>
    <path d="M0,0H30V30H0Z" fill="#f7df1e"/>
    <path d="M7.888,25.07l2.3-1.389c.443.785.846,1.45,1.812,1.45.927,0,1.511-.363,1.511-1.772V13.773h2.819V23.4c0,2.92-1.712,4.25-4.209,4.25A4.376,4.376,0,0,1,7.888,25.07"/>
    <path d="M17.857,24.768l2.3-1.329a3.067,3.067,0,0,0,2.779,1.712c1.168,0,1.913-.584,1.913-1.39,0-.966-.765-1.309-2.054-1.872l-.705-.3c-2.034-.866-3.383-1.953-3.383-4.249,0-2.114,1.611-3.725,4.128-3.725a4.163,4.163,0,0,1,4.007,2.255l-2.2,1.41a1.918,1.918,0,0,0-1.812-1.208,1.226,1.226,0,0,0-1.349,1.208c0,.846.524,1.188,1.732,1.712l.7.3c2.4,1.027,3.746,2.074,3.746,4.43,0,2.537-1.993,3.927-4.672,3.927a5.416,5.416,0,0,1-5.135-2.88"/>
  </g>
</svg>
