<svg id="Layer_1" data-name="Layer 1" xmlns="http://www.w3.org/2000/svg" width="30" height="30" viewBox="0 0 30 30">
  <title>icons</title>
  <path d="M15,0A15,15,0,1,0,30,15,15,15,0,0,0,15,0ZM27.13,7.561a14.135,14.135,0,0,1,1.3,2.729l-.282.1a13.9,13.9,0,0,1,.772,4.1l.158-.005c-.005-.122-.009-.243-.018-.364-.005-.077-.009-.154-.015-.231l-.021-.231c0-.038-.006-.077-.01-.115L29,13.432l-.026-.23-.032-.23-.016-.115-.019-.114-.038-.229-.044-.228-.021-.114-.025-.113-.049-.227c-.072-.3-.147-.6-.239-.9l.046-.014c.091.3.167.6.239.9l.049.227.025.114.022.114.043.229.038.229.019.115.017.115.032.231.026.231.013.115c0,.039.008.077.011.116l.021.231c.006.078.01.155.015.232.009.122.013.243.018.365l.094,0c0,.058,0,.116.006.175l0,.175-.534.006a13.792,13.792,0,0,0-.345-2.911,13.65,13.65,0,0,0-.96-2.771l.213-.1c-.163-.345-.341-.684-.531-1.015l-.2.118c-.063-.106-.124-.213-.19-.318L26.9,7.7a14.124,14.124,0,0,0-1.43-1.932c-.27-.305-.553-.6-.848-.881s-.6-.549-.922-.8l.039-.049c.32.255.63.524.927.806s.58.579.851.886a14.1,14.1,0,0,1,1.436,1.94ZM24.886,24.014l-.191-.175a13.2,13.2,0,0,1-2.829,2.343l-.033-.053A13.157,13.157,0,0,0,24.648,23.8l-.064-.059a13.032,13.032,0,0,0,1.792-2.5c.05-.089.1-.18.144-.27a12.906,12.906,0,0,0,1.2-3.4l.139.027a13.1,13.1,0,0,1-1.21,3.441l.237.123A13.428,13.428,0,0,1,24.886,24.014Zm1.731-2a13.991,13.991,0,0,1-.942,1.363l-.037-.029a13.787,13.787,0,0,0,.939-1.359Zm-1.162,1.636a13.921,13.921,0,0,1-1.133,1.209l-.032-.034a13.815,13.815,0,0,0,1.128-1.205Zm-8.24,4.593q-.576.093-1.16.137l0-.047q.581-.043,1.156-.137c.383-.062.763-.142,1.139-.237l.012.045Q17.792,28.146,17.215,28.241Zm.849.123a13.591,13.591,0,0,1-3.664.319l.009-.188a13.555,13.555,0,0,0,3.614-.315Zm-.933-1.019.24-.053.057.246-.246.054Zm2.88-1.9a11.86,11.86,0,0,0,1.942-1.2l.247.325a12.167,12.167,0,0,1-1.818,1.146c-.063.032-.126.066-.191.1a12.286,12.286,0,0,1-2.362.871l-.035-.137a12.138,12.138,0,0,0,2.335-.861Zm.249-1.763.139-.089.278-.178.27-.192.134-.1.13-.1c.087-.069.174-.136.26-.2l.249-.217c.042-.036.085-.071.125-.109l.119-.114.12-.114.06-.057c.02-.019.039-.038.058-.058.151-.161.308-.316.449-.486l.108-.125c.036-.041.073-.082.106-.126l.205-.26c.07-.085.131-.177.2-.267l.1-.134.048-.068c.016-.022.03-.046.045-.069l.178-.278.045-.07.042-.071.082-.144.082-.143.042-.072.037-.073.151-.3.037-.073.035-.076.068-.15.068-.151c.011-.025.023-.05.033-.075l.031-.077.121-.308c.01-.026.021-.051.03-.077l.027-.078.053-.157.053-.157.026-.078.023-.08.09-.318.022-.079.019-.081.037-.161.037-.161.019-.081c.006-.027.01-.054.015-.081.038-.217.082-.433.105-.653l.021-.164c.006-.055.015-.109.018-.164l.025-.33c0-.055.01-.109.011-.164l0-.166L25.15,15a10.172,10.172,0,0,0-.935-4.255l.057-.027A10.213,10.213,0,0,1,25.213,15l-.008.332,0,.167c0,.055-.007.11-.011.165L25.164,16c0,.055-.012.11-.019.165l-.021.165c-.023.221-.067.439-.105.657L25,17.065l-.019.081-.037.162-.038.162-.018.081-.023.08-.091.321-.023.08-.026.079-.053.157-.054.158-.027.079c-.009.026-.02.051-.03.077l-.122.31-.03.077c-.011.026-.023.051-.034.076l-.069.152-.068.151-.035.076-.037.074-.152.3-.038.074-.041.073-.083.144-.083.144-.042.072-.045.07-.179.28c-.016.023-.03.047-.046.07l-.048.068-.1.135c-.065.09-.127.182-.2.268l-.206.262c-.033.044-.071.085-.107.127l-.108.126c-.142.171-.3.327-.452.488-.019.021-.039.04-.059.059l-.06.057-.12.115-.121.115c-.04.038-.083.073-.125.11l-.251.217c-.086.07-.174.138-.261.207l-.131.1c-.044.033-.09.065-.135.1l-.271.193-.28.18-.14.089-.145.083-.031-.054Zm-.036-.614.1-.067c.018-.011.035-.021.052-.033l.05-.036.143.209-.051.036-.053.035-.106.068ZM14.533,6.158c-.155.012-.311.022-.465.036l-.007-.063c.156-.014.312-.024.469-.037L15,6.082V6.05c.234.008.468.007.7.03l-.01.126c.075.006.15.011.225.018l.013-.126a9.147,9.147,0,0,1,1.513.292l-.035.122.22.062.217.074c.072.025.145.047.216.074l.213.084.047-.117.139.054c.047.019.091.041.137.061l-.051.116.206.093L18.8,6.9a9.4,9.4,0,0,1,1.245.712l.293.208c.095.073.188.148.283.222l.07.055.068.059.136.118c.045.039.091.077.135.118l.13.124-.207.217.131.125c.031.028.058.059.087.089l.086.09.086.091c.029.03.059.059.085.091l.163.189.082.094.077.1.154.2c.027.032.05.066.074.1l.072.1.073.1c.024.033.049.067.07.1a8.921,8.921,0,0,1,.908,1.771l-.193.072a8.627,8.627,0,0,0-.885-1.729c-.021-.034-.046-.067-.069-.1l-.071-.1-.071-.1c-.023-.033-.045-.067-.071-.1l-.151-.191-.075-.1-.08-.092-.16-.184c-.025-.032-.054-.06-.082-.09l-.084-.088-.084-.088c-.029-.03-.056-.06-.086-.087l-.127-.122h0A8.426,8.426,0,0,0,15,6.556V6.145Zm-2.114.108.026.091-.083.023-.027-.09Zm-.2-.468-.073-.242.243-.069.067.244Zm1.565.592.009.063a8.889,8.889,0,0,0-1.4.314l-.019-.06A9.019,9.019,0,0,1,13.781,6.39ZM12.5,6.242l.084-.024.025.092-.083.023Zm.188-.574-.061-.245.246-.057.054.247Zm.256.557-.084.02-.023-.092.085-.02Zm-.168.039c-.029.006-.056.014-.084.022l-.024-.092c.028-.008.056-.016.084-.022Zm.872-.017-.33.059c-.111.017-.219.046-.328.071l-.163.037-.041.01-.041.011-.08.023L12.65,6.4l.081-.023.041-.012.041-.009.165-.038c.11-.024.219-.054.33-.071l.333-.059.335-.043.007.063Zm-.641-.134.085-.019.02.092-.084.02Zm.161-.55-.048-.248.248-.044.041.249Zm.267.466.016.093-.085.015-.017-.093Zm-.154.124-.085.015-.019-.093.086-.015Zm.371-.67-.035-.25.25-.032.028.251Zm.3.471.011.094-.086.011-.012-.094Zm-.161.116-.085.011L13.7,5.987l.087-.011Zm-.171.022-.085.015-.015-.093L13.609,6Zm-.8-1a10.192,10.192,0,0,0-2.077.7l-.027-.057A10.213,10.213,0,0,1,15,4.787l.332.008.167,0c.055,0,.11.007.165.011L16,4.836c.055,0,.11.012.165.019l.165.021c.221.023.439.067.657.1L17.065,5l.081.019.162.037.162.038.081.018.08.023.321.091.08.023.079.026.157.053.158.054.079.027c.026.009.051.02.077.03l.31.122.077.03.076.034.152.069.151.068.076.035.074.037.3.152.074.038.073.041.144.083.144.083.072.042.07.045.28.179.07.046.068.048.135.1c.09.065.182.127.268.2l.262.206c.044.033.085.071.127.107l.126.108c.171.142.327.3.488.452.021.019.04.039.059.059l.057.06.115.12.115.121c.038.04.073.083.11.125l.217.251c.07.086.138.174.207.261l.1.131c.033.044.065.09.1.135l.193.271.18.28.089.14.083.145-.054.031-.083-.143L23.593,9.6l-.178-.278-.192-.27-.1-.134-.1-.13c-.069-.087-.136-.174-.2-.26L22.6,8.28c-.036-.042-.071-.085-.109-.124l-.114-.12-.114-.12-.057-.06c-.019-.02-.038-.039-.058-.058-.161-.151-.316-.308-.486-.449l-.125-.108c-.041-.036-.082-.073-.126-.106l-.26-.205c-.085-.07-.177-.131-.267-.195l-.134-.1-.068-.048c-.022-.016-.046-.03-.069-.045l-.278-.178-.07-.045L20.2,6.281,20.053,6.2l-.143-.082-.072-.041-.073-.038-.3-.151L19.4,5.85l-.076-.035-.15-.068-.151-.068-.075-.033-.077-.031-.308-.121c-.026-.01-.051-.021-.077-.03l-.078-.027-.157-.053-.157-.053-.078-.026-.08-.023-.318-.09-.079-.022-.081-.019-.161-.037-.161-.037-.081-.019c-.027-.006-.054-.01-.081-.015-.217-.038-.433-.082-.653-.105l-.164-.021c-.055-.006-.109-.015-.164-.018l-.33-.025c-.055,0-.109-.01-.164-.011l-.166-.005L15,4.85A10.232,10.232,0,0,0,12.822,5.087ZM8.44,6.667l-.118.093c-.04.031-.079.062-.116.1l-.227.2-.114.1-.109.1L7.53,7.012l.112-.107.117-.1.234-.2c.039-.034.079-.066.12-.1l.122-.095c.081-.064.161-.129.244-.191a11.616,11.616,0,0,1,1.036-.68l.167.287a10.935,10.935,0,0,0-1.005.66C8.6,6.542,8.519,6.606,8.44,6.667Zm.166,1.158c-.063.052-.122.109-.181.166l-.173-.184c.061-.058.121-.117.185-.171Zm-.712.336.087-.091.043-.046.046-.043.177.179L8.2,8.2l-.043.044-.084.089Zm.012.353c-.056.06-.108.123-.162.184l-.19-.165c.055-.063.108-.128.166-.19ZM7.234,3.875l.027.038A13.623,13.623,0,0,0,5.967,4.94l-.031-.035A13.547,13.547,0,0,1,7.234,3.875ZM6.219,4.16,6.412,4l.16.2-.189.157Zm.39-.318.2-.152.149.2-.2.147ZM8.073,3A13.7,13.7,0,0,1,10.53,1.887l.092.268a13.388,13.388,0,0,1,2.2-.548l.008.046a13.381,13.381,0,0,0-2.2.547l.066.193A13.227,13.227,0,0,0,8.341,3.467l.063.109a13.157,13.157,0,0,0-2.088,1.5l-.125-.142A13.411,13.411,0,0,1,8.309,3.412Zm7.4-1.374.219.009.218.014.109.007.109.009.218.02.218.024c.145.015.289.038.433.057.289.045.576.1.861.159l-.055.252a13.078,13.078,0,0,1,3.444,1.281l-.03.055A13,13,0,0,0,17.8,2.243l-.019.086a13.05,13.05,0,0,0-3.066-.3c-.1,0-.2.007-.306.01a12.943,12.943,0,0,0-3.546.662l-.045-.134A13.114,13.114,0,0,1,14.4,1.9l-.012-.267c.146-.006.292-.012.438-.013.072,0,.145,0,.218,0l.219,0C15.333,1.625,15.405,1.628,15.478,1.63Zm-.216-.147V1.436a13.423,13.423,0,0,1,1.651.131l-.006.047A13.358,13.358,0,0,0,15.262,1.483Zm1.991.185.008-.047c.273.044.544.1.814.162s.537.132.8.212l-.013.046c-.264-.081-.531-.148-.8-.213S17.525,1.712,17.253,1.668ZM25.51,6.42l-.037.03A13.791,13.791,0,0,0,23.9,4.824l-.135.154a13.3,13.3,0,0,0-2.108-1.511l-.063.109a13.09,13.09,0,0,0-2.34-1.064l.061-.179a13.36,13.36,0,0,1,2.374,1.079L21.927,3a13.8,13.8,0,0,1,2.192,1.572l-.186.213A13.809,13.809,0,0,1,25.51,6.42Zm2.242,4.524-.246.079a13.115,13.115,0,0,1,.61,3.622l-.063,0a13.061,13.061,0,0,0-.607-3.605l-.084.026a12.8,12.8,0,0,0-.554-1.44,13.241,13.241,0,0,0-.722-1.363l-.162-.26a13.051,13.051,0,0,0-2.351-2.736l.094-.106a13.188,13.188,0,0,1,2.376,2.765l.225-.144A13.374,13.374,0,0,1,27.752,10.944Zm-.913-2.477.041-.023a13.221,13.221,0,0,1,.712,1.5l-.044.018A13.219,13.219,0,0,0,26.839,8.467Zm.836,1.818.044-.016c.025.064.048.13.071.2l.068.2.064.2.032.1.03.1.059.2c.02.066.037.133.055.2s.037.133.053.2l.05.2-.046.01-.049-.2c-.016-.067-.036-.133-.053-.2s-.036-.133-.055-.2l-.059-.2-.03-.1-.032-.1-.064-.2-.068-.2C27.722,10.415,27.7,10.349,27.675,10.285Zm.276,7.053a13.38,13.38,0,0,0,.186-1.6l.048,0a13.709,13.709,0,0,1-.187,1.6Zm.02.817a13.133,13.133,0,0,1-.989,2.731l-.127-.063a13.028,13.028,0,0,0,.979-2.7Zm-6.452,7.929.025.04a13.4,13.4,0,0,1-1.463.78l-.02-.043A13.3,13.3,0,0,0,21.519,26.084Zm-1.464.572-.107-.229.222-.105.113.226Zm.333-.447.216-.116.124.22-.222.119Zm1.706-4.723c.056-.06.108-.123.162-.184l.19.165c-.055.063-.108.128-.166.19Zm.012.353-.087.091-.043.046-.046.043-.177-.179L21.8,21.8l.043-.044.084-.089Zm.311-.723.151-.193.2.156-.156.2Zm.3-.387.142-.2.207.146-.146.2ZM18.6,6.307A9.4,9.4,0,0,1,24.408,15h-.222A9.181,9.181,0,0,0,15,5.814V5.592A9.432,9.432,0,0,1,18.6,6.307ZM17.429,5.7l.064-.244.242.069-.07.242Zm.472.137.076-.241.239.08-.083.239Zm.464.16.088-.237.235.093-.095.234Zm1.334.621.124-.221.218.126-.129.217Zm.422.251.135-.214.212.136L20.327,7Zm.408.273.146-.207.2.146-.151.2Zm.394.293.156-.2.2.156-.161.194Zm.379.312.165-.19c.063.055.128.108.19.166l-.171.186C21.426,7.85,21.363,7.8,21.3,7.744ZM22.79,9.371l-.071-.1c-.023-.034-.05-.065-.075-.1l.2-.153c.025.034.053.065.077.1l.073.1Zm.351.057.036.051c.012.018.023.036.035.053l.068.106-.212.138L23,9.673c-.011-.018-.021-.035-.033-.052l-.036-.05Zm-.649-.448-.075-.1-.081-.093.193-.163.082.1.078.1Zm-.317-.374c-.052-.063-.109-.122-.166-.181l.184-.173c.058.061.117.121.171.185Zm-.335-.359L21.8,8.2l-.044-.043-.089-.084.175-.182.091.087.046.043.043.046Zm1.83,2.6.228-.109.1.23-.231.1Zm-.084,1.985-.01-.041-.011-.041-.023-.08.061-.017.023.081.012.041.009.041.038.165c.024.11.054.219.071.33l.059.333.043.335-.063.007-.042-.333-.059-.33c-.017-.111-.046-.219-.071-.328Zm.024.952-.063.009a8.889,8.889,0,0,0-.314-1.4l.06-.019A9.019,9.019,0,0,1,23.61,13.781Zm.237-.5-.015-.085.093-.019.015.086Zm.109.068.015.086-.093.016-.015-.085Zm-.142-.237-.02-.084.093-.021.019.085Zm-.039-.168-.02-.084.092-.023.02.085Zm-.039-.168c-.006-.029-.014-.056-.022-.084l.092-.024c.008.028.016.056.022.084Zm-.046-.167-.023-.083.091-.026.024.084Zm-.047-.166-.023-.083.09-.027.024.084Zm.226,1.616c.014.156.024.312.037.469l.012.47h-.063l-.013-.467c-.012-.155-.022-.311-.036-.465Zm.039-.438-.015-.085.093-.015.016.086Zm.105.072.011.087-.094.012-.011-.085Zm.022.173.011.087-.094.011-.011-.086Zm.022.173c0,.029.006.058.008.087l-.094.009c0-.029,0-.057-.008-.086Zm.014.174.007.087-.094.007-.007-.086Zm.014.174.006.087L24,14.482,23.99,14.4Zm.011.174,0,.088-.095,0,0-.086Zm0,.175,0,.087-.1,0,0-.086Zm0,.175,0,.087h-.095l0-.086Zm-2.58-6.172.176.186.168.193c.115.127.217.265.323.4.055.066.1.137.152.207l.149.209c.047.071.092.143.139.215l.069.108.035.054.031.055-.054.033-.031-.055-.035-.054-.069-.107-.137-.214-.148-.207c-.049-.069-.1-.14-.151-.205-.106-.133-.206-.27-.321-.395l-.166-.193-.176-.185ZM22.2,9.9a8.6,8.6,0,0,1,.964,1.747l-.058.024a8.578,8.578,0,0,0-.957-1.735Zm1.335,2,.093.275-.6.2-.086-.255Zm.179,5.515a10.6,10.6,0,0,0,.333-2.26l.063,0a10.5,10.5,0,0,1-1.156,4.419l-.056-.029A10.541,10.541,0,0,0,23.713,17.419Zm.213.259.031-.1.091.027-.031.1Zm.06.127-.031.1-.09-.03.031-.1Zm-.532,1.129.086.039c-.014.032-.03.063-.045.094l-.086-.039C23.424,19,23.44,18.966,23.454,18.934ZM23,20.328l.133-.207.214.135-.136.212Zm.262-.416.122-.213.221.124-.126.218Zm.318-1.035-.087-.038.041-.095.087.037Zm-.006-.228.04-.1.088.035-.041.1Zm.08-.19.036-.1.089.034-.037.1Zm.072-.194.035-.1.089.032-.035.1Zm.071-.194.035-.1.09.031-.036.1Zm.208.294.237.088-.093.235-.234-.095Zm.082-.232.078-.232.241.076-.08.239Zm.148-.468.067-.236.244.064-.069.242Zm-.118-.488a8.316,8.316,0,0,0,.251-2.017H24.9a8.588,8.588,0,0,1-.261,2.1Zm.492-2.3-.006-.245.252-.01.006.252Zm-.019-.49-.018-.245.251-.023.019.252Zm-.043-.49-.031-.243.25-.035.032.25Zm-.068-.486-.043-.241.248-.048.044.248Zm-.093-.482-.055-.239.245-.061.057.246Zm-.118-.476-.067-.237.242-.073.069.243Zm-.142-.47-.079-.233.238-.085.081.239Zm-.166-.462-.09-.229.233-.1.092.234Zm-.5-2.514.115-.082a10.044,10.044,0,0,1,.828,1.38l.046.09.023.045.021.046.083.183c.055.123.113.244.16.37s.1.249.146.375l.129.382-.134.043-.128-.376c-.046-.125-.1-.247-.144-.371s-.1-.244-.158-.365l-.082-.181-.02-.045-.023-.044-.045-.089A10.031,10.031,0,0,0,23.462,9.007ZM19.609,5.426l.377.193.094.049.092.053.184.1c.061.036.123.07.183.108l.178.114.179.114.044.029.043.031.087.061.172.123c.058.041.116.081.171.126l.333.262c.108.091.214.184.321.276l-.116.131a10.46,10.46,0,0,0-3.4-2.031l.113-.313-.391-.132c-.065-.023-.132-.041-.2-.06l-.2-.056c-.066-.019-.132-.039-.2-.056l-.2-.046-.2-.047-.1-.023-.1-.018-.407-.073c-.136-.019-.273-.035-.41-.053l-.1-.013L16.1,4.274l-.052,0-.206-.016-.205-.015c-.035,0-.069-.006-.1-.007l-.1,0-.014.332-.149,0,.016-.656A11.065,11.065,0,0,1,22.388,6.71l-.1.113-.331-.286-.344-.27c-.056-.046-.116-.087-.175-.129l-.178-.127-.09-.063-.044-.032-.046-.029L20.9,5.769l-.184-.118c-.062-.039-.126-.074-.189-.111l-.189-.109-.095-.054c-.032-.018-.065-.034-.1-.051l-.389-.2-.4-.181-.132.305Zm-1.221-.511-.081.239c-.084-.027-.167-.058-.252-.083l.074-.242C18.216,4.855,18.3,4.886,18.388,4.915ZM18.015,4.8l-.072.242-.255-.072.065-.245ZM9.007,6.538l-.082-.115a10.044,10.044,0,0,1,1.38-.828l.09-.046.045-.023.046-.021.183-.083c.123-.055.244-.113.37-.16s.249-.1.375-.146l.382-.129.043.134-.376.128c-.125.046-.247.1-.371.144s-.244.1-.365.158l-.181.082-.045.02-.044.023-.089.045A10.031,10.031,0,0,0,9.007,6.538Zm.769.394L9.673,7c-.018.011-.035.021-.052.033l-.05.036-.143-.209.051-.036.053-.035.106-.068Zm-.4.278-.1.071c-.034.023-.065.05-.1.075l-.153-.2c.034-.025.065-.053.1-.077l.1-.073Zm.83-1.634-.028-.056A10.641,10.641,0,0,1,12.32,4.7a10.526,10.526,0,0,1,2.273-.331l0,.063A10.438,10.438,0,0,0,10.2,5.576Zm.992-.765c.032-.013.064-.027.1-.037l.033.089c-.033.01-.065.024-.1.036Zm.2-.071.1-.033.03.089-.1.034Zm.2-.067.1-.033.029.09-.1.033Zm.2-.065.1-.029.027.091-.1.028Zm.2-.057.1-.029.026.091-.1.029Zm.2-.057.1-.028.023.091-.1.028Zm.2-.052.1-.024.022.093-.1.023Zm.2-.047.1-.023.02.092-.1.023Zm.2-.047.1-.019.018.093-.1.019Zm7.611-1a12.865,12.865,0,0,0-10.3-.224l-.018-.044a12.826,12.826,0,0,1,2.545-.752,12.887,12.887,0,0,1,7.791.977Zm.939.665-.071.123a12.421,12.421,0,0,0-2.379-1.062l.044-.135A12.612,12.612,0,0,1,21.344,4.011Zm-2.7-1.247-.041.136q-.529-.158-1.072-.269t-1.091-.172q-.549-.063-1.1-.078c-.368-.009-.737,0-1.1.019l-.008-.141c.372-.022.745-.029,1.117-.02s.745.037,1.115.079.738.1,1.1.174S18.29,2.658,18.648,2.764Zm-8.287-.08-.188.071-.186.076c-.062.025-.125.051-.186.078l-.184.081c-.061.026-.122.056-.183.084-.122.056-.241.116-.361.176l-.022-.043c.121-.06.241-.12.363-.176.062-.028.122-.057.184-.084l.185-.081c.061-.028.123-.053.186-.079l.187-.076.188-.072c.063-.024.126-.048.19-.07l.015.045C10.486,2.636,10.423,2.66,10.361,2.684Zm2.926-.335.036.265A12.452,12.452,0,0,0,9.058,4l-.127-.235A12.722,12.722,0,0,1,13.287,2.349Zm-1.033.529a12.5,12.5,0,0,1,3.279-.293l0-.071c.125,0,.25.014.375.021s.25.022.374.032c.249.028.5.058.745.1A12.053,12.053,0,0,1,18.494,3a12.246,12.246,0,0,1,1.413.5,12.635,12.635,0,0,1,1.342.672l-.134.231A12.37,12.37,0,0,0,19.8,3.749a12.057,12.057,0,0,0-2.815-.818c-.242-.041-.485-.071-.729-.1-.122-.011-.244-.024-.366-.032s-.244-.017-.367-.021l.006-.149A12.35,12.35,0,0,0,9.025,4.155L9,4.114A12.39,12.39,0,0,1,12.254,2.878ZM21.06,4.5l-.071.123a11.865,11.865,0,0,0-2.27-1.014l-.083.255a11.7,11.7,0,0,0-2.227-.492l.049-.406a12.063,12.063,0,0,1,2.1.444c.068.02.136.043.2.065A12.081,12.081,0,0,1,21.06,4.5ZM14.1,2.8a12.283,12.283,0,0,0-1.481.2l-.009-.047a12.392,12.392,0,0,1,1.486-.2Zm-3.244.671c-.059.02-.117.042-.175.064l-.175.067-.173.071c-.058.023-.116.047-.173.072l-.171.075c-.057.025-.113.053-.17.079-.114.051-.225.107-.337.163l-.021-.042c.112-.056.224-.112.338-.164.057-.026.113-.054.17-.079l.172-.075c.058-.026.116-.049.174-.073l.173-.071.176-.067c.058-.022.117-.045.176-.065Zm1.827-.368a12.259,12.259,0,0,1,3.489-.165l-.013.133a12.1,12.1,0,0,0-3.451.164,11.892,11.892,0,0,0-3.257,1.14l-.062-.119A12.039,12.039,0,0,1,12.685,3.105Zm2.641.11v.047c-.265,0-.53-.007-.795,0-.132,0-.264.014-.4.022-.067,0-.132.011-.2.017s-.132.01-.2.019l0-.047c.066-.009.132-.013.2-.019s.132-.013.2-.017c.133-.008.265-.018.4-.022C14.794,3.208,15.06,3.21,15.326,3.215ZM13.118,4.386l-.1.018L13,4.311l.1-.019Zm.987-.622L14.084,3.5a11.867,11.867,0,0,1,2.082.022,11.7,11.7,0,0,1,2.041.393l-.075.257a11.409,11.409,0,0,0-1.993-.384A11.709,11.709,0,0,0,14.105,3.764ZM20.62,5.228a11.2,11.2,0,0,0-1.983-.9l.173-.506a11.688,11.688,0,0,1,2.034.918l.006-.01a12.159,12.159,0,0,1,3.538,3.1l-.435.331A11.584,11.584,0,0,0,20.62,5.228Zm3.5,1.335a12.442,12.442,0,0,1,1.9,2.69l.063-.032A12.068,12.068,0,0,1,26.7,10.59c.046.117.085.236.127.353.022.059.04.119.06.179s.039.119.057.178c.072.24.142.481.2.724A12.587,12.587,0,0,1,27.5,15H27.23a12.3,12.3,0,0,0-.349-2.912c-.057-.239-.125-.474-.2-.709-.018-.058-.038-.116-.057-.174s-.036-.117-.058-.175c-.041-.115-.079-.231-.124-.345a12.007,12.007,0,0,0-.6-1.341l.133-.069A12.435,12.435,0,0,0,21.4,4.4l.025-.041A12.514,12.514,0,0,1,24.123,6.563ZM21.552,4.356l.14-.228A12.839,12.839,0,0,1,25.1,7.192l-.212.164A12.532,12.532,0,0,0,21.552,4.356ZM27.545,15a12.547,12.547,0,0,0-.269-2.592l.139-.029A12.752,12.752,0,0,1,27.687,15Zm.215.36a12.733,12.733,0,0,1-.946,4.483l-.248-.1a12.474,12.474,0,0,0,.927-4.388Zm-.478-3.286a12.436,12.436,0,0,0-.7-2.1q-.221-.507-.484-.994t-.57-.947l.118-.078q.309.467.577.958c.177.327.34.663.489,1a12.631,12.631,0,0,1,.705,2.119Zm-.822,6.87a12.089,12.089,0,0,1-1.6,3.1l-.108-.078a11.92,11.92,0,0,0,2.221-6.46l.134.006A12.114,12.114,0,0,1,26.46,18.944Zm.167.011a12.681,12.681,0,0,1-.57,1.388l-.042-.021a12.568,12.568,0,0,0,.567-1.382Zm-.569-6.142.525-.1A11.962,11.962,0,0,1,26.806,15h0a12.171,12.171,0,0,1-.905,4.542l-.494-.209a11.6,11.6,0,0,0,.864-4.386h0A11.3,11.3,0,0,0,26.058,12.813Zm-.8-1.424.033.1-.089.03-.034-.1Zm-.123-.066c-.01-.033-.024-.065-.036-.1l.088-.033c.013.032.027.064.037.1Zm.19.263.033.1-.09.029-.033-.1Zm.065.2.029.1-.091.027-.028-.1Zm.057.2.029.1-.091.026-.029-.1Zm.057.2.028.1-.091.023-.028-.1Zm.052.2.024.1-.093.022-.023-.1Zm.047.2.023.1-.092.02-.023-.1Zm.047.2c.007.034.012.068.019.1l-.093.018c-.006-.033-.012-.068-.019-.1Zm.037.205.019.1-.094.017-.018-.1Zm-.406-2.621a11.348,11.348,0,0,0-1-1.768l.22-.152a11.634,11.634,0,0,1,1.022,1.81,11.479,11.479,0,0,1,.676,1.964l-.259.064A11.233,11.233,0,0,0,25.283,10.378ZM24.143,7.05a12.125,12.125,0,0,1,1.89,2.935l-.122.056a12.026,12.026,0,0,0-4.486-5.157l.072-.113A12.18,12.18,0,0,1,24.143,7.05ZM21.711,4.756l.026-.04c.21.136.414.283.616.431s.4.3.587.469l-.03.036c-.19-.163-.387-.316-.586-.467S21.921,4.891,21.711,4.756ZM24.2,6.943l.035-.032c.042.047.082.1.122.143l.122.143.117.146.059.073.057.075.114.149c.038.05.074.1.111.151.075.1.145.2.217.307l-.039.026c-.072-.1-.141-.205-.216-.305l-.11-.151-.114-.148-.057-.075-.059-.072-.117-.146-.12-.143C24.282,7.037,24.242,6.989,24.2,6.943Zm1.951,3.3a12.12,12.12,0,0,1,.663,2.043l.046.209A12.163,12.163,0,0,1,27.12,15h-.141a12.021,12.021,0,0,0-.257-2.475l-.262.055a11.59,11.59,0,0,0-.685-2.175Zm-1.633-2.2a11.919,11.919,0,0,1,.853,1.345l-.042.023a11.6,11.6,0,0,0-.849-1.34Zm1.268,11.721-.04.092-.043.09c-.028.06-.055.12-.084.18-.06.119-.117.238-.18.355-.123.236-.256.466-.395.692l-.04-.024c.138-.226.271-.455.393-.69.063-.116.12-.235.179-.354.029-.059.056-.119.085-.179l.042-.09.039-.091Zm-.366.194A11.6,11.6,0,0,1,23,23.318l-.185-.193a11.3,11.3,0,0,0,2.368-3.281ZM23.84,22.677c.046-.051.09-.1.135-.156s.09-.105.133-.159l.13-.16.065-.081.063-.082.126-.164.122-.166c.04-.056.081-.111.12-.168l.039.027c-.039.057-.081.112-.121.168l-.123.168-.126.164-.063.082-.065.081-.131.162c-.043.053-.089.105-.133.158s-.089.106-.136.157l-.138.155-.035-.032Zm3.386-6.986.048,0a12.911,12.911,0,0,1-.174,1.492l-.047-.009A12.362,12.362,0,0,0,27.226,15.691ZM22.988,7.53l.107.112.1.117.2.234c.034.039.066.079.1.12l.095.122c.064.081.129.161.191.244a11.616,11.616,0,0,1,.68,1.036l-.287.167a10.935,10.935,0,0,0-.66-1.005c-.059-.08-.123-.158-.184-.237l-.093-.118c-.031-.04-.062-.079-.095-.116l-.2-.228-.1-.113-.1-.109ZM24.424,10.2l.056-.028A10.641,10.641,0,0,1,25.3,12.32a10.526,10.526,0,0,1,.331,2.273l-.063,0A10.438,10.438,0,0,0,24.424,10.2Zm.853,7.552-.074.262-.242-.072.072-.255Zm-.106.376c-.026.087-.057.172-.086.259l-.239-.081c.027-.084.058-.167.083-.252Zm-.028.532.132-.391c.023-.065.041-.132.06-.2l.056-.2c.019-.066.039-.132.056-.2l.046-.2.047-.2.023-.1.018-.1.073-.407c.019-.136.035-.273.053-.41l.013-.1.006-.051,0-.052.016-.206.015-.205c0-.035.006-.069.007-.1l0-.1-.332-.014,0-.149.656.016a11.065,11.065,0,0,1-2.809,7.105l-.113-.1c.095-.11.191-.22.286-.331l.27-.343c.046-.057.087-.117.129-.176l.127-.179.063-.089.032-.044.029-.046.118-.184.118-.184c.039-.062.074-.126.111-.189l.109-.189.054-.095c.018-.032.034-.065.051-.1l.2-.389.181-.4-.3-.132-.175.387-.193.377c-.016.031-.032.063-.049.094l-.053.092-.105.184c-.036.061-.07.123-.108.183l-.114.178-.114.179-.029.044-.031.043-.061.087-.123.172c-.041.058-.081.116-.126.171l-.262.333c-.091.108-.184.214-.276.321l-.131-.116a10.46,10.46,0,0,0,2.031-3.4Zm-2.267,5.007c.051-.046.1-.094.15-.142l.149-.143.145-.147c.048-.049.1-.1.144-.149l.034.033c-.047.051-.1.1-.144.149l-.146.147-.15.144c-.049.048-.1.1-.15.142-.1.093-.2.188-.309.277l-.157.136-.159.132-.03-.037.159-.131.156-.135C22.673,23.854,22.774,23.761,22.876,23.668Zm-.518-.573-.117.1-.234.2c-.039.034-.079.066-.12.1l-.122.095c-.081.064-.161.129-.244.191a11.616,11.616,0,0,1-1.036.68l-.167-.287a10.935,10.935,0,0,0,1-.66c.08-.059.158-.123.237-.184l.118-.093c.04-.031.079-.062.116-.095l.228-.2.113-.1.109-.1.226.242Zm-.017,1.688a12.376,12.376,0,0,0,1.119-.951,12.586,12.586,0,0,0,1-1.079,12.4,12.4,0,0,0,.862-1.189l.126.08a12.3,12.3,0,0,0,1.93-6.4h.047a12.343,12.343,0,0,1-1.937,6.421l.06.039a12.954,12.954,0,0,1-.881,1.215,13.124,13.124,0,0,1-1.02,1.1A12.945,12.945,0,0,1,22.5,25a12.724,12.724,0,0,1-1.252.828l-.134-.231A12.5,12.5,0,0,0,22.341,24.783Zm4.082-4.08a12.793,12.793,0,0,1-1.17,1.9,12.984,12.984,0,0,1-1.482,1.67l-.1-.1A12.788,12.788,0,0,0,25.14,22.52,12.63,12.63,0,0,0,26.3,20.64Zm-5.079,5.286-.071-.123a12.621,12.621,0,0,0,2.108-1.532l.094.106A12.815,12.815,0,0,1,21.344,25.989Zm4.639-4.326A12.806,12.806,0,0,0,27.732,16.7l.046.006a12.808,12.808,0,0,1-1.755,4.981,12.991,12.991,0,0,1-3.607,3.857l-.027-.038A12.952,12.952,0,0,0,25.983,21.663Zm.279-12.842a12.9,12.9,0,0,0-3.424-4l.029-.037A12.948,12.948,0,0,1,26.3,8.8,12.8,12.8,0,0,1,27.84,13.85l-.047,0A12.761,12.761,0,0,0,26.262,8.821Zm-4.05-4.828.026-.039c.226.146.444.3.661.462s.427.328.631.5l-.031.036c-.2-.174-.415-.339-.628-.5S22.437,4.139,22.212,3.993Zm1.907,1.455.1-.1a13.427,13.427,0,0,1,1.871,2.221l-.117.079A13.366,13.366,0,0,0,24.119,5.448Zm2.547,2.715-.105-.178-.11-.175c-.071-.117-.149-.231-.225-.346-.154-.228-.313-.453-.482-.671l.038-.029c.169.219.328.445.484.673.075.116.153.23.225.348l.11.176.106.178ZM26.55,7.7a13.719,13.719,0,0,0-2.328-2.78l.128-.139A13.91,13.91,0,0,1,26.709,7.6ZM20.733,2.753l-.187-.087-.19-.083-.094-.041-.1-.039-.191-.079c-.257-.1-.516-.195-.778-.279l.014-.045c.264.084.523.18.781.281l.192.078.1.039.095.042.19.083c.063.028.125.058.188.087Zm-9.486-.564a13.227,13.227,0,0,1,2.86-.506l.009.141a13.142,13.142,0,0,0-2.83.5Zm2.018-.6-.006-.047a14.075,14.075,0,0,1,1.653-.11v.048A13.975,13.975,0,0,0,13.265,1.59Zm-2.383.38-.057-.18a13.818,13.818,0,0,1,3.622-.629l.008.189A13.6,13.6,0,0,0,10.882,1.97ZM8.656,4.011l.071.123A12.621,12.621,0,0,0,6.619,5.666L6.525,5.56A12.815,12.815,0,0,1,8.656,4.011Zm-3.4,2.777L5.2,6.75a10.505,10.505,0,0,1,3.48-2.958l.03.055A10.442,10.442,0,0,0,5.253,6.788ZM7.016,3.544,7.224,3.4l.139.211-.2.137Zm-1,1.136L5.845,4.5l.185-.171.169.188Zm2.115-.862.033.053A13.126,13.126,0,0,0,5.228,6.34L5.181,6.3A13.2,13.2,0,0,1,8.134,3.818ZM4.582,6.382l-.037-.03A13.921,13.921,0,0,1,5.678,5.143l.032.034A13.815,13.815,0,0,0,4.582,6.382Zm1.062.64A10.249,10.249,0,0,1,7.239,5.5l.039.05A10.161,10.161,0,0,0,4.467,8.88l-.056-.029A10.27,10.27,0,0,1,5.644,7.022Zm1.1-.9c.052-.048.1-.1.157-.144A12.238,12.238,0,0,1,8.94,4.5l.071.123A12.1,12.1,0,0,0,7,6.087l.179.2A11.822,11.822,0,0,0,5.634,7.968l-.327-.245A12.178,12.178,0,0,1,6.746,6.126ZM9.783,4.958l-.125-.237a13.434,13.434,0,0,1,3.276-1.207l.09.4a12.948,12.948,0,0,0-2.9,1.031c-.092.044-.182.093-.273.139A12.893,12.893,0,0,0,6.922,7.191l-.1-.1A13.037,13.037,0,0,1,9.783,4.958ZM8.723,7.389l.1-.078.158.2-.1.075-.093.081-.163-.193Zm.2.91.194-.168c.127-.115.265-.217.4-.323.066-.055.137-.1.207-.152l.209-.149c.071-.047.143-.092.215-.139l.108-.069.054-.035.055-.031.033.054-.055.031-.054.035-.107.069-.214.137-.207.148c-.069.049-.14.1-.205.151-.133.106-.27.206-.395.321l-.193.166-.185.176-.043-.046ZM11.65,6.837l.024.058a8.578,8.578,0,0,0-1.735.957L9.9,7.8A8.6,8.6,0,0,1,11.65,6.837ZM10.735,6.1l.23-.1.1.231-.224.1ZM11.2,5.9l.234-.093.092.236-.229.09Zm.47-.182.239-.081.079.24-.233.079ZM15,5.892v.095l-.086,0V5.9Zm-.368-.5-.01-.252.252-.006,0,.252Zm.2.6-.086,0,0-.095.087,0Zm-.173,0-.086,0,0-.094.088,0ZM14.482,6,14.4,6.01l-.007-.095.087-.006Zm-.34-.576-.023-.251.252-.019.016.252Zm.167.589-.086.007-.008-.094.087-.007Zm-.181-.081.009.094c-.029,0-.057,0-.086.008l-.01-.094C14.07,5.939,14.1,5.937,14.128,5.935Zm7.62,16.258c-.061.058-.121.117-.185.171l-.169-.189c.063-.052.122-.109.181-.166Zm-.376.336-.095.082-.1.078-.158-.2.1-.075.093-.081Zm-.743.261.1-.071c.034-.023.065-.05.1-.075l.153.2c-.034.025-.065.053-.1.077l-.1.073Zm-1.271,4.16-.237.085-.082-.239.231-.083Zm-.476.164-.241.073-.07-.243.235-.071Zm-.485.146-.24.079-.076-.241.234-.077Zm-.551-.091.07.243-.243.066-.064-.244Zm1.911.5.016.044a14.041,14.041,0,0,1-1.591.463l-.011-.046A13.891,13.891,0,0,0,19.757,27.665Zm-.842.09-.04-.136a13.019,13.019,0,0,0,2.656-1.1l.068.124A13.181,13.181,0,0,1,18.915,27.755ZM21.6,26.424a13.157,13.157,0,0,0,2.088-1.5l.125.142a13.411,13.411,0,0,1-2.118,1.519Zm2.437-1.364.031.035a13.547,13.547,0,0,1-1.3,1.03l-.027-.038A13.623,13.623,0,0,0,24.033,25.06ZM27.482,20.2l.044.018a13.67,13.67,0,0,1-.731,1.488l-.041-.023A13.664,13.664,0,0,0,27.482,20.2Zm.352-.51a13.616,13.616,0,0,0,.508-1.746l.185.04a13.616,13.616,0,0,1-1.264,3.455l-.167-.088A13.674,13.674,0,0,0,27.834,19.693Zm.478-2.063c-.071.361-.156.72-.256,1.074q-.16.563-.368,1.109l-.044-.016c.137-.363.26-.732.366-1.106q.15-.529.255-1.07l-.2-.04A13.48,13.48,0,0,0,28.316,15H28.19a13.231,13.231,0,0,0-.249-2.557l.186-.037A13.535,13.535,0,0,1,28.379,15h.472a14.011,14.011,0,0,1-.261,2.685Zm-.081-5.422.046-.01c.016.067.028.136.041.2l.039.2.034.205c.011.068.023.136.032.205.019.136.039.273.053.411.008.068.016.137.023.206l.019.206-.047,0-.019-.206c-.007-.068-.015-.136-.023-.205-.014-.137-.034-.273-.053-.41-.009-.068-.021-.136-.032-.2l-.034-.2-.038-.2C28.258,12.343,28.246,12.275,28.231,12.208Zm-6.076-9.6a14.345,14.345,0,0,1,2.509,1.842,14.491,14.491,0,0,1,1.09,1.113l.064.073.063.075.126.148c.083.1.164.2.246.3s.158.206.236.31l.115.158c.038.052.076.1.113.158l-.116.082c-.036-.054-.074-.106-.112-.158l-.114-.155c-.076-.1-.156-.205-.234-.307s-.16-.2-.243-.3L25.774,5.8l-.063-.074-.064-.072a14.206,14.206,0,0,0-3.563-2.927ZM17.634,1.016l-.055.294a13.836,13.836,0,0,1,3.943,1.38l.074-.139a14.016,14.016,0,0,0-3.372-1.266l.011-.046a14.065,14.065,0,0,1,3.383,1.27l.044-.083c.1.054.206.111.308.168l-.262.466a13.63,13.63,0,0,0-5.576-1.707l.02-.235q-.572-.045-1.144-.047v.236l-.37,0-.006-.26A13.938,13.938,0,0,0,9.9,2.009L9.873,1.95A14,14,0,0,1,14.63.988L14.624.777A14.273,14.273,0,0,1,17.634,1.016ZM10.7,1.353a14.229,14.229,0,0,1,3.055-.6l.013.141A14.083,14.083,0,0,0,7.916,2.731l-.071-.122A14.316,14.316,0,0,1,10.7,1.353Zm-2.915,2-.21.128-.133-.215.215-.13Zm-.205-.382.025.04A14.125,14.125,0,0,0,4.737,5.351L4.7,5.319A14.183,14.183,0,0,1,7.575,2.972ZM4.587,5.692l.188.169-.164.184L4.42,5.88Zm-.328.382.2.16L4.3,6.425,4.1,6.27Zm-.308.4.2.15-.144.2L3.8,6.676Zm-.288.414.211.139-.134.206L3.525,7.1Zm.662-.261.037.029a13.787,13.787,0,0,0-.939,1.359l-.04-.025A13.991,13.991,0,0,1,4.325,6.625ZM9.368,27.349a.337.337,0,0,1-.227.074.614.614,0,0,1-.284-.074c-.321-1.036-1.058-3.255-1.3-3.97-1.21-3.428-2.381-6.855-3.61-10.283-.359-1.011-.586-1.677-1.38-1.776l-.453-.049a.489.489,0,0,1,.056-.592c.511.05,1.361.074,1.947.074.529,0,1.493-.024,2.155-.074.17.074.151.419.038.592l-.435.049c-.4.05-.624.2-.624.42a23.909,23.909,0,0,0,.983,3.3c1.059,3.082,2.174,6.165,3.27,9.2.454-1.233.964-2.614,1.455-4a5.411,5.411,0,0,0,.3-1.011,2.636,2.636,0,0,0-.152-.641c-.661-1.973-1.36-3.946-2.079-5.918-.283-.765-.567-1.283-1.209-1.357l-.454-.049a.457.457,0,0,1,.038-.592c.548.05,1.266.074,2.022.074a20.47,20.47,0,0,0,2.079-.074c.133.074.152.395.038.592l-.491.049c-.737.074-.756.247-.4,1.357.4,1.208.926,2.762,1.455,4.29.359-.961.7-1.9,1.115-3.23.681-2.1.586-2.367-.019-2.417l-.567-.049c-.132-.247-.094-.518.038-.592.511.05,1.078.074,1.777.074.624,0,1.38-.024,1.814-.074.133.074.152.395.038.592l-.548.049c-.794.074-1.134,1.184-1.55,2.2-.4.912-1.191,3.058-1.474,3.921a2.411,2.411,0,0,0-.17.592,2.355,2.355,0,0,0,.132.592c.643,1.9,1.3,3.748,1.928,5.622.586-1.726,1.153-3.452,1.7-5.2.378-1.184,1.38-4.464,1.512-4.907a18.36,18.36,0,0,0,.567-2.244c0-.346-.227-.543-.624-.568l-.548-.049a.434.434,0,0,1,.019-.592c.718.05,1.229.074,1.815.074a17.175,17.175,0,0,0,1.757-.074c.152.074.171.395.038.592l-.359.049c-.945.124-1.115.863-2.249,4.291l-1.38,4.168c-.831,2.515-1.587,4.932-2.362,7.57a.337.337,0,0,1-.227.074.492.492,0,0,1-.265-.074c-.6-2.2-1.7-5.277-2.287-7C11.05,22.146,9.916,25.3,9.368,27.349Zm4.087,1.462.008-.062a13.861,13.861,0,0,0,4.865-.285l.014.062a13.921,13.921,0,0,1-4.887.285Zm1.605.344v-.142a14.136,14.136,0,0,0,5.982-1.336l.06.128A14.27,14.27,0,0,1,15.06,29.155Zm10.731-4.881-.227-.2A13.961,13.961,0,0,1,22.4,26.8l.083.133a14.156,14.156,0,0,0,2.779-2.286l.034.032a14.186,14.186,0,0,1-2.788,2.294l.051.08c-.1.062-.2.124-.3.183l-.172-.289A13.779,13.779,0,0,1,18.7,28.338l-.048-.183a13.573,13.573,0,0,0,3.345-1.368l-.005-.009a13.637,13.637,0,0,0,1.22-.816,13.85,13.85,0,0,0,1.125-.942,13.57,13.57,0,0,0,1.919-2.215l.194.135c.218-.314.425-.635.615-.967l-.2-.118c.062-.107.121-.215.182-.323l.228.125A13.824,13.824,0,0,0,28.8,17.074l.062.009a14,14,0,0,1-.575,2.389,14.143,14.143,0,0,1-.966,2.215l.186.1A14.4,14.4,0,0,1,25.791,24.274Zm2.051-3.29A14.135,14.135,0,0,0,29.165,15h.142a14.277,14.277,0,0,1-1.337,6.044Z" fill="#171628"/>
</svg>
