<svg id="Layer_1" data-name="Layer 1" xmlns="http://www.w3.org/2000/svg" width="30" height="30" viewBox="0 0 30 30">
  <title>icons</title>
  <g>
    <path d="M15,30A15,15,0,1,1,30,15,15.017,15.017,0,0,1,15,30ZM15,1.253A13.747,13.747,0,1,0,28.747,15,13.763,13.763,0,0,0,15,1.253Z" fill="#cbcbcb"/>
    <path d="M15.228,15.74a.428.428,0,0,1-.228.066.433.433,0,0,1-.23-.067L7.287,11a.394.394,0,0,0-.6.333v8.4a1.1,1.1,0,0,0,1.1,1.1H22.219a1.1,1.1,0,0,0,1.1-1.1V11.389a.394.394,0,0,0-.6-.334Z" fill="#cbcbcb"/>
    <path d="M21.959,9.175H8.132a.269.269,0,0,0-.144.5L15,14.116l7.1-4.444A.269.269,0,0,0,21.959,9.175Z" fill="#cbcbcb"/>
  </g>
</svg>
