<svg xmlns="http://www.w3.org/2000/svg" width="30" height="30" viewBox="0 0 30 30">
  <title>icons</title>
  <g style="isolation: isolate">
    <g id="Layer_1" data-name="Layer 1">
      <g id="PS">
        <rect x="1.145" y="1.571" width="27.711" height="26.859" fill="#30267e"/>
        <g>
          <g opacity="0.5" style="mix-blend-mode: multiply">
            <polygon points="27.851 16.679 21.856 12.308 18.928 12.669 17.925 12.97 14.497 9.802 8.14 9.721 7.278 21.07 17.745 27.687 28.533 27.768 27.851 16.679" fill="#2f1a5e"/>
          </g>
          <g>
            <path d="M7.312,8.817a24.416,24.416,0,0,1,2.752-.226,7.245,7.245,0,0,1,3.113.3,3.979,3.979,0,0,1,1.854,1.394,3.9,3.9,0,0,1,.086,4.253c-1.1,1.725-3.311,1.932-3.955,1.992a6.4,6.4,0,0,1-1.582-.048v4.588h-2.3Q7.3,14.944,7.312,8.817Zm3.94,5.849a2.535,2.535,0,0,0,1.5-.644,2.23,2.23,0,0,0,.6-1.589,2.088,2.088,0,0,0-.437-1.273,2.443,2.443,0,0,0-1.874-.791,3.62,3.62,0,0,0-1.466.181l.01,4.079A4.2,4.2,0,0,0,11.252,14.666Z" fill="#7ebcf9"/>
            <path d="M16.2,20.68,16.646,19a5.027,5.027,0,0,0,2.752.594,1.127,1.127,0,0,0,.772-.387.955.955,0,0,0,.135-.826c-.118-.381-.473-.565-1.063-.862-.547-.275-.622-.21-1.122-.461a3.176,3.176,0,0,1-1.143-.8,2.553,2.553,0,0,1-.543-1.609,2.713,2.713,0,0,1,.783-1.82,3.372,3.372,0,0,1,2.216-.922,4.758,4.758,0,0,1,1.865.2,4.852,4.852,0,0,1,.912.391l-.451,1.594a3.458,3.458,0,0,0-2.346-.413.989.989,0,0,0-.624.406.951.951,0,0,0-.008.857c.246.519.8.431,1.9.993a3.579,3.579,0,0,1,1.353.977,2.658,2.658,0,0,1,.579,1.651,2.688,2.688,0,0,1-.662,1.7,4.048,4.048,0,0,1-3.286,1.015A6.242,6.242,0,0,1,16.2,20.68Z" fill="#7ebcf9"/>
          </g>
        </g>
        <path d="M30,29.574H0V.426H30ZM2.289,27.285H27.711V2.715H2.289Z" fill="#7ebcf9"/>
      </g>
    </g>
  </g>
</svg>
