<svg id="Layer_1" data-name="Layer 1" xmlns="http://www.w3.org/2000/svg" xmlns:xlink="http://www.w3.org/1999/xlink" width="30" height="30" viewBox="0 0 30 30">
  <defs>
    <clipPath id="clip-path">
      <rect x="19.42" y="10.171" width="6.832" height="5.628" transform="translate(-3.216 16.358) rotate(-37)" fill="none"/>
    </clipPath>
    <clipPath id="clip-path-2">
      <rect x="19.422" y="10.171" width="6.832" height="5.628" transform="translate(4.062 31.359) rotate(-74)" fill="none" clip-path="url(#clip-path)"/>
    </clipPath>
    <clipPath id="clip-path-4">
      <ellipse cx="22.82" cy="12.931" rx="3.419" ry="2.811" transform="translate(-3.187 16.338) rotate(-37.001)" fill="none"/>
    </clipPath>
    <clipPath id="clip-path-5">
      <rect x="17.958" y="8.478" width="9.758" height="8.96" transform="translate(-3.199 16.353) rotate(-37.001)" fill="none"/>
    </clipPath>
    <clipPath id="clip-path-6">
      <ellipse cx="22.82" cy="12.931" rx="3.419" ry="2.811" transform="matrix(0.799, -0.602, 0.602, 0.799, -3.187, 16.338)" fill="none"/>
    </clipPath>
  </defs>
  <title>icons</title>
  <g>
    <path d="M15.488,12.938l1.428-.092a1.079,1.079,0,0,0,.19.531.8.8,0,0,0,.662.293.715.715,0,0,0,.494-.152.436.436,0,0,0,.173-.347.426.426,0,0,0-.163-.336,1.875,1.875,0,0,0-.765-.283,3.158,3.158,0,0,1-1.405-.591,1.181,1.181,0,0,1-.424-.939,1.256,1.256,0,0,1,.217-.7,1.425,1.425,0,0,1,.652-.521,3.075,3.075,0,0,1,1.194-.19,2.419,2.419,0,0,1,1.416.347,1.481,1.481,0,0,1,.581,1.1l-1.411.081a.761.761,0,0,0-.239-.478.753.753,0,0,0-.5-.151.614.614,0,0,0-.391.108.326.326,0,0,0-.13.271.263.263,0,0,0,.108.207,1.217,1.217,0,0,0,.505.179,6.292,6.292,0,0,1,1.411.428,1.459,1.459,0,0,1,.619.538,1.348,1.348,0,0,1,.19.721,1.533,1.533,0,0,1-.261.863,1.641,1.641,0,0,1-.722.6,2.91,2.91,0,0,1-1.167.207,2.4,2.4,0,0,1-1.714-.478A1.86,1.86,0,0,1,15.488,12.938ZM.342,14.544V9.692h2.5a3.55,3.55,0,0,1,1.063.12,1.122,1.122,0,0,1,.592.445,1.354,1.354,0,0,1,.228.787,1.3,1.3,0,0,1-.646,1.172,1.677,1.677,0,0,1-.526.19,1.5,1.5,0,0,1,.39.179,1.474,1.474,0,0,1,.239.255,1.654,1.654,0,0,1,.212.3l.727,1.406h-1.7l-.8-1.493a1.155,1.155,0,0,0-.272-.374.641.641,0,0,0-.369-.114h-.13v1.97H.342Zm1.5-2.887H2.48a2.478,2.478,0,0,0,.4-.065.378.378,0,0,0,.244-.152.482.482,0,0,0-.054-.64.912.912,0,0,0-.559-.125H1.845ZM0,18.7l1.427-.092a1.107,1.107,0,0,0,.19.532.8.8,0,0,0,.662.3.718.718,0,0,0,.494-.152.443.443,0,0,0,.174-.347.432.432,0,0,0-.163-.337,1.906,1.906,0,0,0-.771-.282,3.175,3.175,0,0,1-1.4-.591,1.18,1.18,0,0,1-.423-.939A1.253,1.253,0,0,1,.4,16.085a1.43,1.43,0,0,1,.651-.521,3.093,3.093,0,0,1,1.194-.19,2.409,2.409,0,0,1,1.416.348,1.482,1.482,0,0,1,.575,1.1l-1.411.082a.762.762,0,0,0-.238-.478.713.713,0,0,0-.5-.146.577.577,0,0,0-.39.114.316.316,0,0,0-.131.271.264.264,0,0,0,.109.206,1.2,1.2,0,0,0,.5.179,6.3,6.3,0,0,1,1.411.429,1.467,1.467,0,0,1,.618.537,1.389,1.389,0,0,1,.2.717,1.562,1.562,0,0,1-.261.857,1.648,1.648,0,0,1-.722.6,2.909,2.909,0,0,1-1.166.206,2.4,2.4,0,0,1-1.715-.477A1.91,1.91,0,0,1,0,18.7Z" fill="#171628"/>
    <path d="M7.218,18.321l1.313.4a2.443,2.443,0,0,1-.418.923,1.815,1.815,0,0,1-.7.559,2.664,2.664,0,0,1-1.075.19,3.127,3.127,0,0,1-1.291-.228,2.046,2.046,0,0,1-.869-.809,2.725,2.725,0,0,1-.363-1.481,2.507,2.507,0,0,1,.64-1.851,2.453,2.453,0,0,1,1.813-.646,2.493,2.493,0,0,1,1.443.369,2.239,2.239,0,0,1,.782,1.14l-1.324.293a1.18,1.18,0,0,0-.147-.325.862.862,0,0,0-.309-.266.944.944,0,0,0-1.189.32,1.751,1.751,0,0,0-.206.955,1.827,1.827,0,0,0,.244,1.107.833.833,0,0,0,.689.3.852.852,0,0,0,.652-.239,1.554,1.554,0,0,0,.32-.706Zm3.066-2.865h1.5v1.7h1.639v-1.7h1.508v4.852H13.421V18.343H11.782v1.965h-1.5Z" fill="#171628"/>
    <path d="M14.723,17.882a2.3,2.3,0,0,1,2.507-2.513,2.537,2.537,0,0,1,1.867.651,2.445,2.445,0,0,1,.657,1.824,2.984,2.984,0,0,1-.288,1.394,2.023,2.023,0,0,1-.825.847,2.76,2.76,0,0,1-1.351.3,3.1,3.1,0,0,1-1.357-.261,2.061,2.061,0,0,1-.873-.824A2.766,2.766,0,0,1,14.723,17.882Zm1.5,0a1.66,1.66,0,0,0,.271,1.058,1.035,1.035,0,0,0,1.493.006,1.784,1.784,0,0,0,.266-1.129,1.489,1.489,0,0,0-.277-1,.943.943,0,0,0-.749-.314.916.916,0,0,0-.727.32,1.6,1.6,0,0,0-.277,1.058Zm5.069,0a2.638,2.638,0,0,1,4.374-1.862,2.469,2.469,0,0,1,.657,1.824,2.984,2.984,0,0,1-.288,1.394,2.029,2.029,0,0,1-.825.847,2.763,2.763,0,0,1-1.351.3,3.1,3.1,0,0,1-1.357-.261,2.07,2.07,0,0,1-.874-.824A2.776,2.776,0,0,1,21.29,17.882Zm1.5,0a1.66,1.66,0,0,0,.271,1.058,1.034,1.034,0,0,0,1.492.006,1.784,1.784,0,0,0,.266-1.129,1.489,1.489,0,0,0-.276-1,.944.944,0,0,0-.749-.314.911.911,0,0,0-.728.32,1.609,1.609,0,0,0-.276,1.058Z" fill="#171628"/>
    <path d="M26.163,15.456h1.5v3.658H30v1.194H26.158V15.456Z" fill="#171628"/>
    <ellipse cx="22.82" cy="12.931" rx="3.419" ry="2.811" transform="translate(-3.187 16.338) rotate(-37.001)" fill="#fff"/>
    <g clip-path="url(#clip-path-4)">
      <g>
        <path d="M16.244,12.316l7.793-5.873L29.429,13.6l-7.793,5.872Z" fill="#fff"/>
        <g clip-path="url(#clip-path-5)">
          <g>
            <ellipse cx="22.82" cy="12.931" rx="3.419" ry="2.811" transform="matrix(0.799, -0.602, 0.602, 0.799, -3.187, 16.338)" fill="#fff"/>
            <g id="Layer_2" data-name="Layer 2">
              <g clip-path="url(#clip-path-6)">
                <g id="Layer_1-2" data-name="Layer 1-2">
                  <path d="M18.414,12.794l5.457-4.112,3.387,4.494L21.8,17.288Z" fill="#fff"/>
                  <g clip-path="url(#clip-path-2)">
                    <ellipse cx="22.82" cy="12.931" rx="3.419" ry="2.811" transform="translate(-3.187 16.338) rotate(-37.001)" fill="#fff" stroke="#171628" stroke-miterlimit="10" stroke-width="0.217"/>
                    <path d="M18.414,12.794l5.457-4.112,3.387,4.494L21.8,17.288Z" fill="none" stroke="#171628" stroke-miterlimit="10" stroke-width="0.217"/>
                    <ellipse cx="22.82" cy="12.931" rx="3.419" ry="2.811" transform="translate(-3.187 16.338) rotate(-37.001)" fill="none" stroke="#171628" stroke-miterlimit="10" stroke-width="0.217"/>
                    <path d="M18.414,12.794l5.457-4.112,3.387,4.494L21.8,17.288Z" fill="#fff"/>
                    <ellipse cx="22.82" cy="12.931" rx="3.419" ry="2.811" transform="translate(-3.187 16.338) rotate(-37.001)" fill="#fff" stroke="#171628" stroke-miterlimit="10" stroke-width="0.217"/>
                    <path d="M18.414,12.794l5.457-4.112,3.387,4.494L21.8,17.288Z" fill="none" stroke="#171628" stroke-miterlimit="10" stroke-width="0.217"/>
                    <path d="M16.244,12.316l7.793-5.873L29.429,13.6l-7.793,5.872Z" fill="none" stroke="#171628" stroke-miterlimit="10" stroke-width="0.217"/>
                  </g>
                  <ellipse cx="22.82" cy="12.931" rx="3.419" ry="2.811" transform="matrix(0.799, -0.602, 0.602, 0.799, -3.187, 16.338)" fill="none" stroke="#171628" stroke-miterlimit="10" stroke-width="0.217"/>
                  <path d="M21.3,12.574l.543-.38.667.95a1.886,1.886,0,0,1,.266.494.634.634,0,0,1-.027.412.874.874,0,0,1-.336.4,1.191,1.191,0,0,1-.462.218.642.642,0,0,1-.374-.055.9.9,0,0,1-.331-.277l.467-.434a.645.645,0,0,0,.141.158.22.22,0,0,0,.13.043.169.169,0,0,0,.1-.038.181.181,0,0,0,.087-.163.543.543,0,0,0-.114-.255l-.76-1.069Zm1.628.6.494-.391a.468.468,0,0,0,.2.141.349.349,0,0,0,.315-.06.329.329,0,0,0,.141-.179.191.191,0,0,0-.12-.239.167.167,0,0,0-.048-.011.873.873,0,0,0-.348.093,1.443,1.443,0,0,1-.656.141.523.523,0,0,1-.391-.234.579.579,0,0,1-.1-.309.623.623,0,0,1,.1-.353,1.377,1.377,0,0,1,.38-.369,1.1,1.1,0,0,1,.6-.233.653.653,0,0,1,.489.25l-.489.385a.292.292,0,0,0-.407-.054l-.016.016a.27.27,0,0,0-.114.141.139.139,0,0,0,.022.13.12.12,0,0,0,.092.049.513.513,0,0,0,.228-.065,2.9,2.9,0,0,1,.618-.2.632.632,0,0,1,.359.038.56.56,0,0,1,.249.212.695.695,0,0,1,.017.771,1.34,1.34,0,0,1-.37.369,1.073,1.073,0,0,1-.738.26.8.8,0,0,1-.51-.3Z" fill="#171628"/>
                </g>
              </g>
            </g>
          </g>
        </g>
      </g>
    </g>
  </g>
</svg>
