<svg id="Layer_1" data-name="Layer 1" xmlns="http://www.w3.org/2000/svg" width="30" height="30" viewBox="0 0 30 30">
  <title>icons</title>
  <g>
    <path d="M15,30A15,15,0,1,1,30,15,15.017,15.017,0,0,1,15,30ZM15,1.253A13.747,13.747,0,1,0,28.747,15,13.763,13.763,0,0,0,15,1.253Z" fill="#cbcbcb"/>
    <path d="M18.214,5.685H11.785a1.333,1.333,0,0,0-1.329,1.329V22.986a1.333,1.333,0,0,0,1.329,1.329h6.429a1.333,1.333,0,0,0,1.33-1.329V7.014A1.333,1.333,0,0,0,18.214,5.685Zm-4.78,1.1h3.132a.157.157,0,0,1,0,.313H13.434a.157.157,0,0,1,0-.313ZM15,23.881a.975.975,0,1,1,.975-.975A.974.974,0,0,1,15,23.881Zm3.876-2.395H11.124V8.192h7.752Z" fill="#cbcbcb"/>
  </g>
</svg>
